<svg xmlns="http://www.w3.org/2000/svg" xmlns:xlink="http://www.w3.org/1999/xlink" width="500" zoomAndPan="magnify" viewBox="0 0 375 374.999991" height="500" preserveAspectRatio="xMidYMid meet" version="1.0"><defs><clipPath id="edf633b5ab"><path d="M 0 187.5 C 0 291.058594 83.941406 375 187.5 375 C 291.058594 375 375 291.058594 375 187.5 C 375 83.941406 291.058594 0 187.5 0 C 83.941406 0 0 83.941406 0 187.5 " clip-rule="nonzero"/></clipPath></defs><path fill="#67999c" d="M 0 187.5 C 0 291.058594 83.941406 375 187.5 375 C 291.058594 375 375 291.058594 375 187.5 C 375 83.941406 291.058594 0 187.5 0 C 83.941406 0 0 83.941406 0 187.5 " fill-opacity="1" fill-rule="nonzero"/><g clip-path="url(#edf633b5ab)"><rect x="-37.5" width="450" fill="#ffffff" y="-37.499999" height="449.999989" fill-opacity="1"/></g><path fill="#000000" d="M 300.726562 313.929688 L 118.394531 313.929688 C 116.03125 313.929688 114.109375 312.011719 114.109375 309.644531 L 114.109375 191.550781 C 114.109375 189.183594 116.03125 187.265625 118.394531 187.265625 L 300.726562 187.265625 C 303.089844 187.265625 305.007812 189.183594 305.007812 191.550781 L 305.007812 309.644531 C 305.007812 312.011719 303.089844 313.929688 300.726562 313.929688 Z M 122.679688 305.355469 L 296.441406 305.355469 L 296.441406 195.835938 L 122.679688 195.835938 Z M 122.679688 305.355469 " fill-opacity="1" fill-rule="nonzero"/><path fill="#000000" d="M 153.316406 195.835938 C 152.183594 195.835938 151.089844 195.378906 150.285156 194.574219 L 122.671875 166.976562 L 122.671875 191.542969 C 122.671875 193.910156 120.753906 195.828125 118.386719 195.828125 C 116.023438 195.828125 114.105469 193.910156 114.105469 191.542969 L 114.105469 156.628906 C 114.105469 154.261719 116.023438 152.34375 118.386719 152.335938 C 119.523438 152.335938 120.621094 152.789062 121.421875 153.597656 L 156.335938 188.511719 C 158.011719 190.179688 158.011719 192.898438 156.335938 194.574219 C 155.53125 195.378906 154.4375 195.835938 153.304688 195.835938 Z M 153.316406 195.835938 " fill-opacity="1" fill-rule="nonzero"/><path fill="#000000" d="M 188.230469 195.835938 C 187.097656 195.835938 186.003906 195.378906 185.199219 194.574219 L 157.601562 166.976562 L 157.601562 191.542969 C 157.601562 193.910156 155.683594 195.828125 153.316406 195.828125 C 150.953125 195.828125 149.03125 193.910156 149.03125 191.542969 L 149.03125 156.628906 C 149.03125 154.261719 150.953125 152.34375 153.316406 152.335938 C 154.453125 152.335938 155.550781 152.789062 156.351562 153.597656 L 191.25 188.511719 C 192.925781 190.179688 192.925781 192.898438 191.25 194.574219 C 190.445312 195.378906 189.351562 195.835938 188.21875 195.835938 Z M 188.230469 195.835938 " fill-opacity="1" fill-rule="nonzero"/><path fill="#000000" d="M 223.148438 195.835938 C 222.011719 195.835938 220.921875 195.378906 220.113281 194.574219 L 192.515625 166.976562 L 192.515625 191.542969 C 192.515625 193.910156 190.597656 195.828125 188.230469 195.828125 C 185.867188 195.828125 183.949219 193.910156 183.949219 191.542969 L 183.949219 156.628906 C 183.953125 154.261719 185.882812 152.351562 188.246094 152.359375 C 189.375 152.359375 190.453125 152.804688 191.25 153.597656 L 226.15625 188.511719 C 227.835938 190.179688 227.835938 192.898438 226.15625 194.574219 C 225.351562 195.378906 224.261719 195.835938 223.125 195.835938 Z M 223.148438 195.835938 " fill-opacity="1" fill-rule="nonzero"/><path fill="#000000" d="M 258.054688 195.835938 C 256.917969 195.835938 255.828125 195.378906 255.023438 194.574219 L 227.429688 166.976562 L 227.429688 191.542969 C 227.429688 193.910156 225.511719 195.828125 223.148438 195.828125 C 220.78125 195.828125 218.863281 193.910156 218.863281 191.542969 L 218.863281 156.628906 C 218.863281 154.261719 220.78125 152.34375 223.148438 152.34375 C 224.28125 152.34375 225.367188 152.796875 226.171875 153.597656 L 261.085938 188.511719 C 262.761719 190.179688 262.761719 192.898438 261.085938 194.574219 C 260.28125 195.378906 259.1875 195.835938 258.054688 195.835938 Z M 258.054688 195.835938 " fill-opacity="1" fill-rule="nonzero"/><path fill="#000000" d="M 300.726562 195.835938 C 298.359375 195.835938 296.441406 193.914062 296.441406 191.550781 L 296.441406 141.472656 C 296.441406 139.109375 298.359375 137.191406 300.726562 137.191406 C 303.089844 137.191406 305.007812 139.109375 305.007812 141.472656 L 305.007812 191.550781 C 305.007812 193.914062 303.089844 195.835938 300.726562 195.835938 Z M 263.226562 195.835938 C 260.859375 195.835938 258.941406 193.914062 258.941406 191.550781 L 258.941406 141.472656 C 258.941406 139.109375 260.859375 137.191406 263.226562 137.191406 C 265.589844 137.191406 267.511719 139.109375 267.511719 141.472656 L 267.511719 191.550781 C 267.507812 193.914062 265.589844 195.835938 263.226562 195.835938 Z M 263.226562 195.835938 " fill-opacity="1" fill-rule="nonzero"/><path fill="#000000" d="M 301.15625 145.757812 L 262.792969 145.757812 C 257.695312 145.75 253.558594 141.621094 253.550781 136.515625 L 253.550781 124.878906 C 253.558594 119.78125 257.6875 115.640625 262.792969 115.632812 L 301.15625 115.632812 C 306.253906 115.640625 310.394531 119.773438 310.398438 124.878906 L 310.398438 136.515625 C 310.394531 141.621094 306.253906 145.757812 301.15625 145.757812 Z M 262.792969 124.210938 C 262.425781 124.210938 262.125 124.511719 262.125 124.878906 L 262.125 136.515625 C 262.125 136.882812 262.425781 137.183594 262.792969 137.183594 L 301.15625 137.183594 C 301.523438 137.183594 301.824219 136.882812 301.824219 136.515625 L 301.824219 124.878906 C 301.824219 124.511719 301.523438 124.210938 301.15625 124.210938 Z M 262.792969 124.210938 " fill-opacity="1" fill-rule="nonzero"/><path fill="#000000" d="M 228.246094 129.34375 C 221.183594 129.34375 214.695312 125.457031 211.363281 119.222656 C 200.910156 120.996094 191 113.957031 189.230469 103.503906 C 189.199219 103.316406 189.164062 103.117188 189.140625 102.925781 C 178.835938 105.335938 168.53125 98.929688 166.121094 88.625 C 163.710938 78.316406 170.121094 68.011719 180.425781 65.601562 C 183.492188 64.886719 186.6875 64.9375 189.726562 65.75 C 190.746094 66.027344 191.742188 66.386719 192.707031 66.820312 C 199.9375 59.4375 211.730469 59.128906 219.332031 66.125 C 228.65625 61.121094 240.269531 64.628906 245.273438 73.953125 C 245.894531 75.117188 246.402344 76.347656 246.773438 77.613281 C 248.003906 77.703125 249.230469 77.90625 250.414062 78.222656 C 253.761719 79.117188 256.808594 80.902344 259.21875 83.394531 C 267.113281 79.8125 276.421875 83.304688 280.003906 91.203125 C 283.585938 99.097656 280.09375 108.40625 272.199219 111.988281 C 267.597656 114.074219 262.273438 113.820312 257.894531 111.304688 C 254.714844 114.03125 250.722656 115.628906 246.539062 115.855469 C 244.050781 123.875 236.636719 129.332031 228.246094 129.34375 Z M 213.890625 109.761719 C 215.828125 109.753906 217.527344 111.058594 218.035156 112.933594 C 219.550781 118.578125 225.359375 121.925781 231 120.410156 C 234.644531 119.429688 237.503906 116.578125 238.476562 112.933594 C 238.644531 112.316406 238.753906 111.695312 238.804688 111.058594 C 239.003906 108.699219 241.078125 106.949219 243.433594 107.136719 C 243.550781 107.144531 243.664062 107.160156 243.773438 107.183594 C 247.691406 107.835938 251.644531 106.222656 253.996094 103.015625 C 255.402344 101.109375 258.082031 100.699219 259.988281 102.105469 C 260.191406 102.261719 260.390625 102.429688 260.566406 102.621094 C 263.277344 105.476562 267.796875 105.601562 270.652344 102.882812 C 273.507812 100.171875 273.632812 95.652344 270.914062 92.796875 C 268.277344 90.023438 263.929688 89.816406 261.042969 92.335938 C 259.253906 93.890625 256.550781 93.707031 254.992188 91.917969 C 254.824219 91.726562 254.675781 91.523438 254.546875 91.304688 C 253.140625 88.9375 250.863281 87.222656 248.210938 86.511719 C 246.804688 86.132812 245.332031 86.050781 243.890625 86.273438 C 241.550781 86.628906 239.363281 85.019531 239.003906 82.683594 C 238.980469 82.566406 238.972656 82.441406 238.96875 82.316406 C 238.578125 76.480469 233.53125 72.0625 227.695312 72.457031 C 225.386719 72.613281 223.191406 73.519531 221.449219 75.035156 C 219.660156 76.589844 216.957031 76.398438 215.398438 74.617188 C 215.296875 74.496094 215.191406 74.371094 215.105469 74.238281 C 211.785156 69.425781 205.195312 68.210938 200.382812 71.527344 C 199.183594 72.355469 198.164062 73.425781 197.394531 74.664062 C 196.140625 76.675781 193.503906 77.292969 191.492188 76.039062 C 191.382812 75.972656 191.273438 75.894531 191.167969 75.820312 C 186.503906 72.296875 179.867188 73.21875 176.34375 77.878906 C 172.820312 82.542969 173.746094 89.179688 178.402344 92.703125 C 182.226562 95.59375 187.515625 95.550781 191.292969 92.605469 C 193.160156 91.148438 195.855469 91.488281 197.308594 93.347656 C 198.164062 94.445312 198.433594 95.902344 198.023438 97.234375 C 197.988281 97.351562 197.953125 97.46875 197.914062 97.59375 C 196.414062 103.242188 199.769531 109.042969 205.414062 110.550781 C 207.679688 111.167969 210.085938 111.003906 212.25 110.089844 C 212.777344 109.878906 213.324219 109.761719 213.890625 109.761719 Z M 213.890625 109.761719 " fill-opacity="1" fill-rule="nonzero"/><path fill="#000000" d="M 276.152344 313.929688 C 273.785156 313.929688 271.867188 312.011719 271.867188 309.644531 L 271.867188 245.183594 L 221.828125 245.183594 L 221.828125 309.644531 C 221.828125 312.011719 219.910156 313.929688 217.542969 313.929688 C 215.179688 313.929688 213.257812 312.011719 213.257812 309.644531 L 213.257812 240.902344 C 213.257812 238.535156 215.179688 236.617188 217.542969 236.617188 L 276.160156 236.617188 C 278.523438 236.617188 280.445312 238.535156 280.445312 240.902344 L 280.445312 309.644531 C 280.445312 312.011719 278.523438 313.929688 276.152344 313.929688 Z M 276.152344 313.929688 " fill-opacity="1" fill-rule="nonzero"/><path fill="#000000" d="M 194.054688 280.203125 L 141.90625 280.203125 C 139.542969 280.203125 137.621094 278.285156 137.621094 275.917969 L 137.621094 240.902344 C 137.621094 238.535156 139.539062 236.617188 141.90625 236.617188 L 194.054688 236.617188 C 196.421875 236.617188 198.339844 238.535156 198.339844 240.902344 L 198.339844 275.917969 C 198.339844 278.285156 196.421875 280.203125 194.054688 280.203125 Z M 146.183594 271.632812 L 189.761719 271.632812 L 189.761719 245.183594 L 146.183594 245.183594 Z M 146.183594 271.632812 " fill-opacity="1" fill-rule="nonzero"/><path fill="#000000" d="M 167.972656 280.203125 C 165.609375 280.203125 163.6875 278.285156 163.6875 275.917969 L 163.6875 240.902344 C 163.6875 238.535156 165.609375 236.617188 167.972656 236.617188 C 170.339844 236.617188 172.257812 238.535156 172.257812 240.902344 L 172.257812 275.917969 C 172.257812 278.285156 170.339844 280.203125 167.972656 280.203125 Z M 167.972656 280.203125 " fill-opacity="1" fill-rule="nonzero"/><path fill="#000000" d="M 276.152344 264.8125 L 217.535156 264.8125 C 215.171875 264.8125 213.25 262.894531 213.25 260.53125 C 213.25 258.164062 215.171875 256.246094 217.535156 256.246094 L 276.152344 256.246094 C 278.519531 256.246094 280.4375 258.164062 280.4375 260.53125 C 280.4375 262.894531 278.523438 264.8125 276.152344 264.8125 Z M 276.152344 264.8125 " fill-opacity="1" fill-rule="nonzero"/><path fill="#000000" d="M 100.921875 299.789062 C 90.101562 299.789062 78.910156 297.480469 71.804688 292.207031 C 67.089844 288.707031 64.59375 284.171875 64.59375 279.050781 L 64.59375 89.179688 C 64.59375 86.8125 66.511719 84.894531 68.875 84.894531 L 133.160156 84.894531 C 135.527344 84.894531 137.445312 86.8125 137.445312 89.179688 L 137.445312 171.429688 C 137.445312 173.796875 135.527344 175.714844 133.160156 175.714844 C 130.796875 175.714844 128.875 173.796875 128.875 171.429688 L 128.875 93.464844 L 73.175781 93.464844 L 73.175781 279.058594 C 73.175781 281.402344 74.398438 283.460938 76.925781 285.328125 C 85.035156 291.351562 103.84375 293.101562 117.179688 289.078125 C 119.441406 288.390625 121.839844 289.679688 122.527344 291.941406 C 123.214844 294.207031 121.925781 296.601562 119.664062 297.289062 C 113.5625 299.003906 107.253906 299.847656 100.921875 299.789062 Z M 100.921875 299.789062 " fill-opacity="1" fill-rule="nonzero"/><path fill="#000000" d="M 101.03125 115.179688 C 91.605469 115.179688 82.675781 112.660156 75.90625 108.089844 C 68.621094 103.152344 64.605469 96.429688 64.605469 89.179688 C 64.605469 86.8125 66.527344 84.894531 68.890625 84.894531 C 71.257812 84.894531 73.175781 86.8125 73.175781 89.179688 C 73.175781 98.621094 85.933594 106.589844 101.03125 106.589844 C 116.125 106.589844 128.882812 98.621094 128.882812 89.179688 C 128.882812 86.8125 130.804688 84.894531 133.167969 84.894531 C 135.535156 84.894531 137.453125 86.8125 137.453125 89.179688 C 137.453125 96.445312 133.441406 103.152344 126.152344 108.074219 C 119.382812 112.644531 110.464844 115.179688 101.03125 115.179688 Z M 101.03125 115.179688 " fill-opacity="1" fill-rule="nonzero"/><path fill="#000000" d="M 101.03125 145.539062 C 91.605469 145.539062 82.675781 143.027344 75.90625 138.449219 C 68.621094 133.535156 64.605469 126.820312 64.605469 119.554688 C 64.605469 117.1875 66.527344 115.269531 68.890625 115.269531 C 71.257812 115.269531 73.175781 117.1875 73.175781 119.554688 C 73.175781 128.992188 85.933594 136.960938 101.03125 136.960938 C 116.125 136.960938 128.882812 128.992188 128.882812 119.554688 C 128.882812 117.1875 130.804688 115.269531 133.167969 115.269531 C 135.535156 115.269531 137.453125 117.1875 137.453125 119.554688 C 137.453125 126.820312 133.441406 133.527344 126.152344 138.449219 C 119.382812 143.035156 110.464844 145.539062 101.03125 145.539062 Z M 101.03125 145.539062 " fill-opacity="1" fill-rule="nonzero"/><path fill="#000000" d="M 90.050781 298.929688 C 87.683594 298.929688 85.765625 297.011719 85.765625 294.644531 L 85.765625 217.75 C 85.765625 215.382812 87.683594 213.464844 90.050781 213.464844 C 92.417969 213.464844 94.335938 215.382812 94.335938 217.75 L 94.335938 294.636719 C 94.335938 297.011719 92.417969 298.929688 90.050781 298.929688 Z M 90.050781 298.929688 " fill-opacity="1" fill-rule="nonzero"/></svg>