<svg xmlns="http://www.w3.org/2000/svg" xmlns:xlink="http://www.w3.org/1999/xlink" width="500" zoomAndPan="magnify" viewBox="0 0 375 374.999991" height="500" preserveAspectRatio="xMidYMid meet" version="1.0"><defs><clipPath id="d416d594b1"><path d="M 0 187.5 C 0 291.0625 83.9375 375 187.5 375 C 291.0625 375 375 291.0625 375 187.5 C 375 83.9375 291.0625 0 187.5 0 C 83.9375 0 0 83.933594 0 187.5 " clip-rule="nonzero"/></clipPath></defs><path fill="#9acc67" d="M 0 187.5 C 0 291.0625 83.933594 375 187.5 375 C 291.0625 375 375 291.0625 375 187.5 C 375 83.933594 291.0625 0 187.5 0 C 83.9375 0 0 83.933594 0 187.5 " fill-opacity="1" fill-rule="nonzero"/><g clip-path="url(#d416d594b1)"><rect x="-37.5" width="450" fill="#ffffff" y="-37.499999" height="449.999989" fill-opacity="1"/></g><path fill="#000000" d="M 259.789062 312.304688 L 115.210938 312.304688 C 107.59375 312.304688 101.367188 306.078125 101.367188 298.460938 L 101.367188 249.902344 C 101.367188 245.289062 103.636719 241.625 107.300781 240.308594 L 167.210938 218.554688 C 169.191406 217.820312 171.386719 218.628906 172.414062 220.53125 L 187.574219 247.851562 L 202.734375 220.53125 C 203.761719 218.699219 205.957031 217.894531 207.933594 218.554688 L 267.847656 240.308594 C 271.507812 241.625 273.707031 245.289062 273.707031 249.902344 L 273.707031 298.460938 C 273.707031 306.152344 267.480469 312.304688 259.789062 312.304688 Z M 110.230469 248.289062 C 110.007812 248.804688 109.863281 249.316406 109.9375 249.902344 L 109.9375 298.460938 C 109.9375 301.390625 112.355469 303.734375 115.210938 303.734375 L 259.863281 303.734375 C 262.792969 303.734375 265.136719 301.390625 265.136719 298.460938 L 265.136719 249.902344 C 265.136719 249.316406 265.0625 248.804688 264.769531 248.289062 L 208.375 227.855469 L 191.234375 258.765625 C 190.0625 260.816406 187.5 261.621094 185.449219 260.449219 C 184.714844 260.082031 184.128906 259.496094 183.765625 258.765625 L 166.625 227.855469 Z M 110.230469 248.289062 " fill-opacity="1" fill-rule="nonzero"/><path fill="#000000" d="M 147.65625 312.304688 C 145.3125 312.304688 143.335938 310.398438 143.335938 307.984375 L 143.335938 230.125 C 143.335938 227.78125 145.238281 225.804688 147.65625 225.804688 C 150 225.804688 151.976562 227.710938 151.976562 230.125 L 151.976562 307.984375 C 151.902344 310.398438 150 312.304688 147.65625 312.304688 Z M 147.65625 312.304688 " fill-opacity="1" fill-rule="nonzero"/><path fill="#000000" d="M 127.515625 312.304688 C 125.171875 312.304688 123.195312 310.398438 123.195312 307.984375 L 123.195312 275.757812 C 123.195312 273.414062 125.097656 271.433594 127.515625 271.433594 C 129.859375 271.433594 131.835938 273.339844 131.835938 275.757812 L 131.835938 307.984375 C 131.835938 310.398438 129.929688 312.304688 127.515625 312.304688 Z M 127.515625 312.304688 " fill-opacity="1" fill-rule="nonzero"/><path fill="#000000" d="M 227.34375 312.304688 C 225 312.304688 223.023438 310.398438 223.023438 307.984375 L 223.023438 230.125 C 223.023438 227.78125 224.925781 225.804688 227.34375 225.804688 C 229.761719 225.804688 231.664062 227.710938 231.664062 230.125 L 231.664062 307.984375 C 231.664062 310.398438 229.6875 312.304688 227.34375 312.304688 Z M 227.34375 312.304688 " fill-opacity="1" fill-rule="nonzero"/><path fill="#000000" d="M 247.484375 312.304688 C 245.140625 312.304688 243.164062 310.398438 243.164062 307.984375 L 243.164062 275.757812 C 243.164062 273.414062 245.066406 271.433594 247.484375 271.433594 C 249.902344 271.433594 251.804688 273.339844 251.804688 275.757812 L 251.804688 307.984375 C 251.734375 310.398438 249.828125 312.304688 247.484375 312.304688 Z M 247.484375 312.304688 " fill-opacity="1" fill-rule="nonzero"/><path fill="#000000" d="M 187.5 220.898438 C 180.320312 220.898438 169.480469 217.527344 158.863281 201.488281 C 150.4375 188.746094 143.699219 170.507812 138.867188 147.4375 C 138.425781 145.09375 139.964844 142.894531 142.308594 142.457031 C 144.578125 142.015625 146.703125 143.480469 147.214844 145.679688 C 157.46875 194.824219 174.683594 212.328125 187.425781 212.328125 C 200.171875 212.328125 217.457031 194.824219 227.636719 145.679688 C 228.148438 143.335938 230.417969 141.871094 232.691406 142.382812 C 234.960938 142.894531 236.5 145.164062 235.984375 147.4375 C 231.152344 170.507812 224.488281 188.671875 215.992188 201.488281 C 205.515625 217.527344 194.675781 220.898438 187.5 220.898438 Z M 187.5 220.898438 " fill-opacity="1" fill-rule="nonzero"/><path fill="#000000" d="M 168.601562 226.246094 C 166.257812 226.246094 164.28125 224.339844 164.28125 221.921875 L 164.28125 206.25 C 164.28125 203.90625 166.1875 201.929688 168.601562 201.929688 C 170.945312 201.929688 172.925781 203.832031 172.925781 206.25 L 172.925781 221.921875 C 172.851562 224.339844 170.945312 226.246094 168.601562 226.246094 Z M 168.601562 226.246094 " fill-opacity="1" fill-rule="nonzero"/><path fill="#000000" d="M 206.394531 227.78125 C 204.050781 227.78125 202.074219 225.878906 202.074219 223.460938 L 202.074219 206.980469 C 202.074219 204.636719 203.980469 202.660156 206.394531 202.660156 C 208.8125 202.660156 210.71875 204.566406 210.71875 206.980469 L 210.71875 223.460938 C 210.71875 225.878906 208.8125 227.78125 206.394531 227.78125 Z M 206.394531 227.78125 " fill-opacity="1" fill-rule="nonzero"/><path fill="#000000" d="M 187.5 312.304688 C 185.15625 312.304688 183.179688 310.398438 183.179688 307.984375 L 183.179688 256.566406 C 183.179688 254.222656 185.082031 252.246094 187.5 252.246094 C 189.917969 252.246094 191.820312 254.148438 191.820312 256.566406 L 191.820312 307.984375 C 191.820312 310.398438 189.84375 312.304688 187.5 312.304688 Z M 187.5 312.304688 " fill-opacity="1" fill-rule="nonzero"/><path fill="#000000" d="M 248.289062 150.878906 L 126.707031 150.878906 C 124.363281 150.878906 122.386719 148.972656 122.386719 146.558594 L 122.386719 123.046875 C 122.386719 120.703125 124.292969 118.726562 126.707031 118.726562 L 248.289062 118.726562 C 250.632812 118.726562 252.613281 120.628906 252.613281 123.046875 L 252.613281 146.558594 C 252.613281 148.902344 250.707031 150.878906 248.289062 150.878906 Z M 130.957031 142.308594 L 244.042969 142.308594 L 244.042969 127.367188 L 130.957031 127.367188 Z M 130.957031 142.308594 " fill-opacity="1" fill-rule="nonzero"/><path fill="#000000" d="M 234.8125 127.367188 L 198.484375 127.367188 C 196.140625 127.367188 194.164062 125.464844 194.164062 123.046875 L 194.164062 77.050781 C 194.164062 74.707031 196.070312 72.730469 198.414062 72.730469 C 198.777344 72.730469 199.070312 72.800781 199.4375 72.875 C 222.65625 78.441406 239.0625 99.167969 239.0625 123.046875 C 239.136719 125.464844 237.230469 127.367188 234.8125 127.367188 Z M 202.734375 118.796875 L 230.273438 118.796875 C 228.734375 102.539062 217.96875 88.550781 202.734375 82.835938 Z M 176.585938 127.367188 L 140.257812 127.367188 C 137.914062 127.367188 135.9375 125.464844 135.9375 123.046875 C 135.9375 99.167969 152.34375 78.367188 175.5625 72.875 C 177.832031 72.363281 180.175781 73.753906 180.6875 76.023438 C 180.761719 76.316406 180.835938 76.683594 180.835938 76.976562 L 180.835938 123.046875 C 180.835938 125.464844 178.929688 127.367188 176.585938 127.367188 Z M 144.726562 118.796875 L 172.339844 118.796875 L 172.339844 82.835938 C 156.957031 88.550781 146.265625 102.539062 144.726562 118.796875 Z M 144.726562 118.796875 " fill-opacity="1" fill-rule="nonzero"/><path fill="#000000" d="M 198.484375 127.367188 L 176.585938 127.367188 C 174.242188 127.367188 172.265625 125.464844 172.265625 123.046875 L 172.265625 73.242188 C 172.265625 67.382812 176.953125 62.695312 182.8125 62.695312 L 192.1875 62.695312 C 198.046875 62.695312 202.734375 67.457031 202.734375 73.242188 L 202.734375 123.046875 C 202.734375 125.390625 200.828125 127.367188 198.484375 127.367188 Z M 180.835938 118.796875 L 194.164062 118.796875 L 194.164062 73.242188 C 194.164062 72.144531 193.285156 71.265625 192.1875 71.265625 L 182.8125 71.265625 C 181.714844 71.265625 180.835938 72.144531 180.835938 73.242188 Z M 180.835938 118.796875 " fill-opacity="1" fill-rule="nonzero"/></svg>