<svg xmlns="http://www.w3.org/2000/svg" xmlns:xlink="http://www.w3.org/1999/xlink" width="500" zoomAndPan="magnify" viewBox="0 0 375 374.999991" height="500" preserveAspectRatio="xMidYMid meet" version="1.0"><path fill="#000000" d="M 143.417969 171.664062 C 142.46875 171.664062 141.519531 171.617188 140.574219 171.523438 C 139.628906 171.429688 138.6875 171.289062 137.753906 171.105469 C 136.824219 170.917969 135.902344 170.6875 134.992188 170.410156 C 134.082031 170.132812 133.1875 169.8125 132.308594 169.449219 C 131.429688 169.085938 130.570312 168.679688 129.734375 168.230469 C 128.894531 167.78125 128.082031 167.292969 127.289062 166.761719 C 126.5 166.234375 125.738281 165.667969 125 165.0625 C 124.265625 164.460938 123.5625 163.820312 122.890625 163.148438 C 122.21875 162.476562 121.582031 161.769531 120.976562 161.035156 C 120.375 160.300781 119.808594 159.535156 119.28125 158.742188 C 118.75 157.953125 118.261719 157.136719 117.816406 156.296875 C 117.367188 155.457031 116.960938 154.597656 116.597656 153.71875 C 116.234375 152.839844 115.914062 151.945312 115.636719 151.03125 C 115.359375 150.121094 115.128906 149.199219 114.945312 148.265625 C 114.757812 147.332031 114.621094 146.390625 114.527344 145.445312 C 114.433594 144.496094 114.386719 143.546875 114.386719 142.59375 C 114.386719 141.640625 114.433594 140.691406 114.527344 139.746094 C 114.621094 138.796875 114.757812 137.855469 114.945312 136.921875 C 115.128906 135.988281 115.359375 135.066406 115.636719 134.15625 C 115.914062 133.246094 116.234375 132.351562 116.597656 131.46875 C 116.960938 130.589844 117.367188 129.730469 117.816406 128.890625 C 118.261719 128.050781 118.75 127.238281 119.28125 126.445312 C 119.808594 125.652344 120.375 124.890625 120.976562 124.152344 C 121.582031 123.417969 122.21875 122.714844 122.890625 122.039062 C 123.5625 121.367188 124.265625 120.726562 125 120.125 C 125.738281 119.519531 126.5 118.953125 127.289062 118.425781 C 128.082031 117.894531 128.894531 117.40625 129.734375 116.957031 C 130.570312 116.511719 131.429688 116.101562 132.308594 115.738281 C 133.1875 115.375 134.082031 115.054688 134.992188 114.777344 C 135.902344 114.5 136.824219 114.269531 137.753906 114.085938 C 138.6875 113.898438 139.628906 113.757812 140.574219 113.667969 C 141.519531 113.574219 142.46875 113.527344 143.417969 113.527344 C 144.371094 113.527344 145.320312 113.574219 146.265625 113.667969 C 147.210938 113.757812 148.152344 113.898438 149.082031 114.085938 C 150.015625 114.269531 150.9375 114.5 151.847656 114.777344 C 152.757812 115.054688 153.652344 115.375 154.53125 115.738281 C 155.40625 116.101562 156.265625 116.511719 157.105469 116.957031 C 157.945312 117.40625 158.757812 117.894531 159.546875 118.425781 C 160.339844 118.953125 161.101562 119.519531 161.835938 120.125 C 162.570312 120.726562 163.277344 121.367188 163.949219 122.039062 C 164.621094 122.714844 165.257812 123.417969 165.863281 124.152344 C 166.464844 124.890625 167.03125 125.652344 167.558594 126.445312 C 168.085938 127.238281 168.574219 128.050781 169.023438 128.890625 C 169.472656 129.730469 169.878906 130.589844 170.242188 131.46875 C 170.605469 132.351562 170.925781 133.246094 171.203125 134.15625 C 171.476562 135.066406 171.707031 135.988281 171.894531 136.921875 C 172.078125 137.855469 172.21875 138.796875 172.3125 139.746094 C 172.40625 140.691406 172.453125 141.640625 172.453125 142.59375 C 172.449219 143.546875 172.402344 144.496094 172.308594 145.441406 C 172.214844 146.390625 172.074219 147.328125 171.886719 148.261719 C 171.703125 149.195312 171.46875 150.117188 171.195312 151.027344 C 170.917969 151.9375 170.597656 152.832031 170.230469 153.710938 C 169.867188 154.59375 169.460938 155.449219 169.011719 156.289062 C 168.566406 157.128906 168.078125 157.945312 167.546875 158.734375 C 167.019531 159.527344 166.453125 160.289062 165.851562 161.027344 C 165.246094 161.761719 164.609375 162.464844 163.9375 163.136719 C 163.265625 163.8125 162.5625 164.449219 161.828125 165.054688 C 161.09375 165.65625 160.332031 166.222656 159.539062 166.753906 C 158.75 167.28125 157.9375 167.769531 157.097656 168.21875 C 156.261719 168.667969 155.402344 169.074219 154.523438 169.441406 C 153.644531 169.804688 152.753906 170.125 151.84375 170.402344 C 150.933594 170.679688 150.011719 170.910156 149.082031 171.097656 C 148.148438 171.285156 147.210938 171.425781 146.265625 171.519531 C 145.316406 171.613281 144.371094 171.660156 143.417969 171.664062 Z M 143.417969 125.152344 C 142.847656 125.152344 142.28125 125.179688 141.710938 125.238281 C 141.144531 125.292969 140.582031 125.378906 140.019531 125.488281 C 139.460938 125.601562 138.910156 125.738281 138.363281 125.90625 C 137.816406 126.070312 137.28125 126.261719 136.753906 126.480469 C 136.226562 126.699219 135.710938 126.945312 135.207031 127.214844 C 134.703125 127.480469 134.214844 127.777344 133.742188 128.09375 C 133.265625 128.410156 132.808594 128.75 132.367188 129.113281 C 131.925781 129.476562 131.503906 129.859375 131.101562 130.261719 C 130.699219 130.664062 130.316406 131.089844 129.953125 131.53125 C 129.59375 131.972656 129.253906 132.429688 128.9375 132.90625 C 128.617188 133.378906 128.324219 133.867188 128.058594 134.371094 C 127.789062 134.875 127.542969 135.390625 127.324219 135.921875 C 127.109375 136.449219 126.914062 136.984375 126.75 137.53125 C 126.585938 138.078125 126.445312 138.632812 126.335938 139.191406 C 126.222656 139.753906 126.140625 140.316406 126.082031 140.886719 C 126.027344 141.453125 126 142.023438 126 142.59375 C 126 143.164062 126.027344 143.734375 126.082031 144.304688 C 126.140625 144.871094 126.222656 145.4375 126.335938 145.996094 C 126.445312 146.558594 126.585938 147.109375 126.75 147.65625 C 126.914062 148.203125 127.109375 148.742188 127.324219 149.269531 C 127.542969 149.796875 127.789062 150.3125 128.058594 150.816406 C 128.324219 151.320312 128.617188 151.808594 128.9375 152.285156 C 129.253906 152.757812 129.59375 153.21875 129.953125 153.660156 C 130.316406 154.101562 130.699219 154.523438 131.101562 154.925781 C 131.503906 155.332031 131.925781 155.714844 132.367188 156.078125 C 132.808594 156.4375 133.265625 156.777344 133.742188 157.097656 C 134.214844 157.414062 134.703125 157.707031 135.207031 157.976562 C 135.710938 158.246094 136.226562 158.488281 136.753906 158.707031 C 137.28125 158.925781 137.816406 159.117188 138.363281 159.285156 C 138.910156 159.449219 139.460938 159.589844 140.019531 159.699219 C 140.582031 159.8125 141.144531 159.894531 141.710938 159.953125 C 142.28125 160.007812 142.847656 160.035156 143.417969 160.035156 C 143.988281 160.035156 144.558594 160.007812 145.125 159.953125 C 145.695312 159.894531 146.257812 159.8125 146.816406 159.699219 C 147.378906 159.589844 147.929688 159.449219 148.476562 159.285156 C 149.023438 159.117188 149.558594 158.925781 150.085938 158.707031 C 150.613281 158.488281 151.128906 158.246094 151.628906 157.976562 C 152.132812 157.707031 152.621094 157.414062 153.097656 157.097656 C 153.570312 156.777344 154.027344 156.4375 154.46875 156.078125 C 154.910156 155.714844 155.332031 155.332031 155.738281 154.925781 C 156.140625 154.523438 156.523438 154.101562 156.882812 153.660156 C 157.246094 153.21875 157.585938 152.757812 157.902344 152.285156 C 158.21875 151.808594 158.511719 151.320312 158.78125 150.816406 C 159.050781 150.3125 159.292969 149.796875 159.511719 149.269531 C 159.730469 148.742188 159.921875 148.203125 160.089844 147.65625 C 160.253906 147.109375 160.394531 146.558594 160.503906 145.996094 C 160.617188 145.4375 160.699219 144.871094 160.753906 144.304688 C 160.8125 143.734375 160.839844 143.164062 160.839844 142.59375 C 160.839844 142.023438 160.8125 141.453125 160.753906 140.886719 C 160.699219 140.316406 160.617188 139.753906 160.503906 139.191406 C 160.394531 138.632812 160.253906 138.078125 160.089844 137.53125 C 159.921875 136.984375 159.730469 136.449219 159.511719 135.921875 C 159.292969 135.390625 159.050781 134.875 158.78125 134.371094 C 158.511719 133.867188 158.21875 133.378906 157.902344 132.90625 C 157.585938 132.429688 157.246094 131.972656 156.882812 131.53125 C 156.523438 131.089844 156.140625 130.664062 155.738281 130.261719 C 155.332031 129.859375 154.910156 129.476562 154.46875 129.113281 C 154.027344 128.75 153.570312 128.410156 153.097656 128.09375 C 152.621094 127.777344 152.132812 127.480469 151.628906 127.214844 C 151.128906 126.945312 150.613281 126.699219 150.085938 126.480469 C 149.558594 126.261719 149.023438 126.070312 148.476562 125.90625 C 147.929688 125.738281 147.378906 125.601562 146.816406 125.488281 C 146.257812 125.378906 145.695312 125.292969 145.125 125.238281 C 144.558594 125.179688 143.988281 125.152344 143.417969 125.152344 Z M 143.417969 125.152344 " fill-opacity="1" fill-rule="nonzero"/><path fill="#000000" d="M 122.074219 135.25 L 86.109375 102.242188 C 83.316406 99.671875 80.664062 96.964844 78.148438 94.121094 C 75.632812 91.277344 73.273438 88.308594 71.066406 85.222656 C 68.859375 82.132812 66.816406 78.9375 64.9375 75.636719 C 63.058594 72.335938 61.359375 68.949219 59.832031 65.472656 C 58.304688 61.996094 56.957031 58.449219 55.796875 54.832031 C 54.636719 51.21875 53.664062 47.550781 52.882812 43.835938 C 52.097656 40.117188 51.511719 36.371094 51.117188 32.59375 C 50.71875 28.816406 50.519531 25.027344 50.515625 21.230469 L 50.515625 19.925781 C 50.511719 19.003906 50.585938 18.085938 50.730469 17.171875 C 50.878906 16.261719 51.097656 15.367188 51.394531 14.492188 C 51.6875 13.617188 52.050781 12.769531 52.484375 11.953125 C 52.914062 11.136719 53.414062 10.363281 53.972656 9.628906 C 54.53125 8.894531 55.148438 8.210938 55.820312 7.578125 C 56.492188 6.945312 57.210938 6.371094 57.980469 5.859375 C 58.746094 5.34375 59.546875 4.894531 60.386719 4.511719 C 61.230469 4.132812 62.09375 3.820312 62.984375 3.582031 C 63.875 3.339844 64.78125 3.175781 65.699219 3.085938 C 66.617188 2.992188 67.535156 2.976562 68.457031 3.039062 C 69.378906 3.097656 70.289062 3.234375 71.1875 3.445312 C 72.085938 3.65625 72.960938 3.9375 73.8125 4.292969 C 74.664062 4.644531 75.480469 5.066406 76.265625 5.554688 C 77.046875 6.046875 77.785156 6.59375 78.476562 7.207031 C 79.171875 7.816406 79.808594 8.476562 80.394531 9.195312 C 80.976562 9.910156 81.5 10.667969 81.957031 11.46875 L 142.636719 116.433594 L 132.589844 122.246094 L 71.914062 17.3125 C 71.628906 16.804688 71.269531 16.355469 70.839844 15.96875 C 70.40625 15.582031 69.921875 15.273438 69.386719 15.050781 C 68.851562 14.824219 68.296875 14.691406 67.714844 14.648438 C 67.136719 14.609375 66.566406 14.664062 66.007812 14.816406 C 65.445312 14.964844 64.925781 15.203125 64.441406 15.523438 C 63.960938 15.847656 63.542969 16.242188 63.191406 16.707031 C 62.839844 17.167969 62.574219 17.675781 62.394531 18.226562 C 62.210938 18.78125 62.121094 19.347656 62.128906 19.925781 L 62.128906 21.210938 C 62.132812 24.609375 62.3125 27.996094 62.664062 31.371094 C 63.015625 34.75 63.542969 38.101562 64.242188 41.425781 C 64.941406 44.746094 65.8125 48.027344 66.851562 51.257812 C 67.886719 54.492188 69.089844 57.664062 70.457031 60.773438 C 71.820312 63.878906 73.34375 66.910156 75.023438 69.863281 C 76.703125 72.8125 78.527344 75.667969 80.503906 78.429688 C 82.476562 81.191406 84.585938 83.84375 86.835938 86.386719 C 89.082031 88.933594 91.457031 91.351562 93.953125 93.648438 L 129.925781 126.664062 Z M 122.074219 135.25 " fill-opacity="1" fill-rule="nonzero"/><path fill="#000000" d="M 67.753906 282.121094 C 66.261719 282.136719 64.789062 281.960938 63.34375 281.59375 C 61.894531 281.230469 60.515625 280.6875 59.203125 279.964844 C 57.894531 279.246094 56.699219 278.371094 55.613281 277.34375 C 54.53125 276.3125 53.59375 275.164062 52.804688 273.894531 C 52.039062 272.632812 51.460938 271.289062 51.070312 269.863281 C 50.683594 268.4375 50.496094 266.988281 50.515625 265.507812 C 50.53125 264.03125 50.753906 262.585938 51.175781 261.171875 C 51.597656 259.753906 52.207031 258.425781 53 257.179688 L 121.117188 151.078125 L 130.882812 157.367188 L 62.785156 263.414062 C 62.351562 264.09375 62.132812 264.835938 62.125 265.640625 C 62.121094 266.445312 62.328125 267.191406 62.75 267.878906 C 62.957031 268.183594 63.1875 268.464844 63.449219 268.726562 C 63.707031 268.988281 63.988281 269.226562 64.289062 269.433594 C 64.589844 269.644531 64.910156 269.824219 65.242188 269.976562 C 65.578125 270.128906 65.925781 270.25 66.28125 270.335938 C 66.636719 270.425781 67 270.480469 67.367188 270.5 C 67.734375 270.519531 68.101562 270.507812 68.464844 270.460938 C 68.828125 270.417969 69.1875 270.335938 69.539062 270.226562 C 69.886719 270.113281 70.222656 269.96875 70.546875 269.796875 L 71.710938 269.1875 C 74.683594 267.664062 77.574219 265.992188 80.371094 264.167969 C 83.171875 262.34375 85.871094 260.378906 88.464844 258.269531 C 91.054688 256.164062 93.53125 253.925781 95.890625 251.554688 C 98.25 249.1875 100.476562 246.699219 102.574219 244.097656 C 104.671875 241.496094 106.625 238.789062 108.441406 235.980469 C 110.253906 233.167969 111.914062 230.273438 113.421875 227.289062 C 114.929688 224.304688 116.28125 221.25 117.46875 218.125 C 118.65625 214.996094 119.675781 211.816406 120.53125 208.585938 L 131.988281 162.890625 L 143.25 165.722656 L 131.804688 211.410156 C 130.851562 215.039062 129.710938 218.609375 128.386719 222.117188 C 127.058594 225.628906 125.546875 229.058594 123.859375 232.410156 C 122.171875 235.761719 120.3125 239.011719 118.285156 242.167969 C 116.253906 245.324219 114.0625 248.363281 111.714844 251.289062 C 109.367188 254.210938 106.871094 257.003906 104.226562 259.667969 C 101.585938 262.328125 98.808594 264.84375 95.902344 267.214844 C 92.996094 269.582031 89.972656 271.792969 86.835938 273.84375 C 83.695312 275.894531 80.457031 277.777344 77.121094 279.488281 L 75.960938 280.070312 C 73.394531 281.429688 70.660156 282.113281 67.753906 282.121094 Z M 67.753906 282.121094 " fill-opacity="1" fill-rule="nonzero"/><path fill="#000000" d="M 289.894531 160.035156 L 160.839844 160.035156 L 160.839844 148.40625 L 289.894531 148.40625 C 290.207031 148.386719 290.511719 148.339844 290.816406 148.257812 C 291.117188 148.179688 291.410156 148.070312 291.691406 147.933594 C 291.972656 147.796875 292.238281 147.632812 292.488281 147.445312 C 292.738281 147.253906 292.96875 147.042969 293.175781 146.808594 C 293.382812 146.574219 293.566406 146.324219 293.726562 146.054688 C 293.886719 145.785156 294.015625 145.5 294.121094 145.207031 C 294.226562 144.910156 294.300781 144.605469 294.34375 144.296875 C 294.390625 143.988281 294.402344 143.675781 294.386719 143.363281 C 294.40625 142.824219 294.339844 142.300781 294.1875 141.785156 C 294.035156 141.273438 293.808594 140.792969 293.503906 140.355469 C 293.195312 139.914062 292.828125 139.53125 292.402344 139.210938 C 291.972656 138.886719 291.503906 138.644531 290.996094 138.472656 L 256.382812 128.527344 C 248.890625 126.375 241.246094 125.253906 233.453125 125.167969 C 225.65625 125.078125 217.988281 126.027344 210.449219 128.007812 L 162.320312 140.6875 L 159.359375 129.445312 L 207.488281 116.769531 C 211.742188 115.648438 216.054688 114.816406 220.425781 114.273438 C 224.792969 113.730469 229.175781 113.484375 233.578125 113.535156 C 237.980469 113.582031 242.355469 113.925781 246.710938 114.566406 C 251.066406 115.207031 255.359375 116.132812 259.589844 117.351562 L 294.207031 127.296875 C 295.058594 127.558594 295.886719 127.882812 296.6875 128.277344 C 297.488281 128.667969 298.25 129.125 298.980469 129.640625 C 299.707031 130.15625 300.386719 130.726562 301.023438 131.351562 C 301.660156 131.976562 302.242188 132.648438 302.769531 133.367188 C 303.296875 134.085938 303.765625 134.84375 304.171875 135.636719 C 304.578125 136.433594 304.917969 137.253906 305.191406 138.101562 C 305.46875 138.953125 305.671875 139.816406 305.808594 140.699219 C 305.941406 141.582031 306.007812 142.46875 306 143.363281 C 306.007812 143.898438 305.988281 144.433594 305.945312 144.96875 C 305.902344 145.503906 305.832031 146.035156 305.734375 146.566406 C 305.636719 147.09375 305.515625 147.617188 305.367188 148.132812 C 305.222656 148.648438 305.050781 149.15625 304.851562 149.65625 C 304.65625 150.15625 304.433594 150.644531 304.1875 151.121094 C 303.941406 151.597656 303.675781 152.0625 303.382812 152.515625 C 303.09375 152.964844 302.78125 153.402344 302.449219 153.824219 C 302.113281 154.242188 301.761719 154.644531 301.390625 155.03125 C 301.015625 155.417969 300.625 155.785156 300.214844 156.132812 C 299.808594 156.480469 299.382812 156.808594 298.941406 157.113281 C 298.5 157.417969 298.046875 157.703125 297.578125 157.964844 C 297.109375 158.226562 296.628906 158.460938 296.136719 158.675781 C 295.644531 158.890625 295.144531 159.082031 294.632812 159.246094 C 294.125 159.410156 293.605469 159.550781 293.082031 159.664062 C 292.558594 159.777344 292.027344 159.867188 291.496094 159.925781 C 290.964844 159.988281 290.429688 160.027344 289.894531 160.035156 Z M 289.894531 160.035156 " fill-opacity="1" fill-rule="nonzero"/><path fill="#000000" d="M 160.839844 375.140625 L 126 375.140625 C 125.605469 375.140625 125.210938 375.101562 124.824219 375.019531 C 124.4375 374.941406 124.0625 374.824219 123.699219 374.667969 C 123.335938 374.511719 122.992188 374.320312 122.667969 374.09375 C 122.34375 373.867188 122.042969 373.609375 121.773438 373.320312 C 121.5 373.03125 121.261719 372.71875 121.050781 372.382812 C 120.84375 372.046875 120.671875 371.691406 120.535156 371.320312 C 120.402344 370.949219 120.304688 370.566406 120.246094 370.175781 C 120.1875 369.78125 120.171875 369.390625 120.195312 368.992188 L 131.804688 165.515625 C 131.828125 165.148438 131.882812 164.789062 131.972656 164.429688 C 132.0625 164.074219 132.183594 163.726562 132.339844 163.394531 C 132.496094 163.058594 132.679688 162.746094 132.894531 162.445312 C 133.109375 162.148438 133.351562 161.871094 133.621094 161.621094 C 133.886719 161.367188 134.175781 161.140625 134.488281 160.945312 C 134.796875 160.746094 135.121094 160.578125 135.464844 160.445312 C 135.804688 160.308594 136.15625 160.207031 136.519531 160.136719 C 136.878906 160.070312 137.246094 160.035156 137.613281 160.035156 L 149.226562 160.035156 C 149.59375 160.035156 149.957031 160.070312 150.320312 160.136719 C 150.679688 160.207031 151.03125 160.308594 151.375 160.445312 C 151.714844 160.578125 152.042969 160.746094 152.351562 160.945312 C 152.664062 161.140625 152.953125 161.367188 153.21875 161.621094 C 153.488281 161.871094 153.726562 162.148438 153.941406 162.445312 C 154.160156 162.746094 154.34375 163.058594 154.5 163.394531 C 154.652344 163.726562 154.777344 164.074219 154.867188 164.429688 C 154.957031 164.789062 155.011719 165.148438 155.03125 165.515625 L 164.324219 328.296875 L 152.710938 328.960938 L 143.746094 171.664062 L 143.09375 171.664062 L 132.148438 363.511719 L 154.691406 363.511719 L 153.382812 340.59375 L 164.996094 339.921875 L 166.65625 368.988281 C 166.679688 369.382812 166.664062 369.777344 166.605469 370.171875 C 166.546875 370.5625 166.449219 370.945312 166.3125 371.320312 C 166.179688 371.691406 166.007812 372.046875 165.796875 372.382812 C 165.589844 372.722656 165.347656 373.035156 165.074219 373.324219 C 164.804688 373.609375 164.503906 373.867188 164.179688 374.09375 C 163.855469 374.320312 163.507812 374.511719 163.144531 374.667969 C 162.78125 374.824219 162.402344 374.945312 162.015625 375.023438 C 161.628906 375.101562 161.234375 375.140625 160.839844 375.140625 Z M 160.839844 375.140625 " fill-opacity="1" fill-rule="nonzero"/><path fill="#000000" d="M 28.085938 210.03125 C 26.378906 207.105469 24.785156 204.117188 23.308594 201.066406 C 21.828125 198.019531 20.464844 194.917969 19.222656 191.765625 C 17.980469 188.613281 16.855469 185.417969 15.855469 182.179688 C 14.851562 178.941406 13.976562 175.667969 13.222656 172.363281 C 12.46875 169.058594 11.84375 165.730469 11.34375 162.378906 C 10.84375 159.023438 10.472656 155.65625 10.226562 152.277344 C 9.980469 148.894531 9.867188 145.511719 9.878906 142.121094 C 9.890625 138.730469 10.03125 135.347656 10.300781 131.96875 C 10.570312 128.589844 10.96875 125.226562 11.492188 121.875 C 12.015625 118.527344 12.667969 115.203125 13.445312 111.902344 C 14.222656 108.605469 15.121094 105.339844 16.148438 102.109375 C 17.171875 98.878906 18.320312 95.691406 19.585938 92.546875 C 20.851562 89.402344 22.238281 86.3125 23.738281 83.273438 C 25.238281 80.238281 26.855469 77.261719 28.582031 74.34375 C 30.308594 71.429688 32.144531 68.585938 34.089844 65.808594 C 36.03125 63.03125 38.078125 60.335938 40.226562 57.714844 L 49.191406 65.097656 C 47.230469 67.492188 45.363281 69.953125 43.589844 72.488281 C 41.8125 75.023438 40.136719 77.621094 38.5625 80.285156 C 36.984375 82.945312 35.507812 85.664062 34.136719 88.4375 C 32.765625 91.210938 31.503906 94.035156 30.347656 96.902344 C 29.191406 99.773438 28.144531 102.683594 27.207031 105.632812 C 26.273438 108.585938 25.449219 111.566406 24.742188 114.578125 C 24.03125 117.589844 23.4375 120.625 22.957031 123.683594 C 22.476562 126.742188 22.117188 129.8125 21.871094 132.898438 C 21.625 135.984375 21.496094 139.074219 21.484375 142.167969 C 21.472656 145.265625 21.578125 148.355469 21.800781 151.441406 C 22.027344 154.527344 22.367188 157.601562 22.824219 160.664062 C 23.277344 163.726562 23.851562 166.765625 24.539062 169.78125 C 25.226562 172.800781 26.027344 175.789062 26.941406 178.746094 C 27.855469 181.699219 28.878906 184.617188 30.015625 187.496094 C 31.152344 190.375 32.394531 193.207031 33.746094 195.992188 C 35.097656 198.777344 36.550781 201.503906 38.109375 204.179688 Z M 28.085938 210.03125 " fill-opacity="1" fill-rule="nonzero"/><path fill="#000000" d="M 45.726562 233.761719 C 42.140625 229.90625 38.785156 225.859375 35.667969 221.613281 L 45.039062 214.730469 C 47.878906 218.613281 50.941406 222.316406 54.21875 225.832031 Z M 45.726562 233.761719 " fill-opacity="1" fill-rule="nonzero"/><path fill="#000000" d="M 173.769531 272.820312 L 171.132812 261.5 C 175.6875 260.421875 180.167969 259.089844 184.570312 257.5 C 188.972656 255.910156 193.273438 254.074219 197.464844 251.992188 C 201.660156 249.910156 205.71875 247.59375 209.648438 245.046875 C 213.574219 242.5 217.347656 239.734375 220.957031 236.753906 C 224.570312 233.773438 228 230.597656 231.25 227.226562 C 234.5 223.851562 237.546875 220.304688 240.390625 216.582031 C 243.234375 212.859375 245.855469 208.984375 248.253906 204.960938 C 250.65625 200.941406 252.820312 196.792969 254.746094 192.523438 L 265.335938 197.277344 C 263.230469 201.957031 260.859375 206.496094 258.230469 210.902344 C 255.601562 215.308594 252.730469 219.550781 249.617188 223.628906 C 246.503906 227.707031 243.167969 231.589844 239.609375 235.285156 C 236.050781 238.980469 232.296875 242.460938 228.339844 245.722656 C 224.382812 248.988281 220.253906 252.015625 215.953125 254.804688 C 211.648438 257.59375 207.203125 260.128906 202.609375 262.410156 C 198.015625 264.691406 193.308594 266.703125 188.488281 268.441406 C 183.664062 270.183594 178.757812 271.640625 173.769531 272.820312 Z M 173.769531 272.820312 " fill-opacity="1" fill-rule="nonzero"/><path fill="#000000" d="M 270.070312 185.132812 L 259.039062 181.445312 C 260.257812 177.808594 261.3125 174.070312 262.179688 170.34375 L 273.484375 172.980469 C 272.554688 177.0625 271.398438 181.148438 270.070312 185.132812 Z M 270.070312 185.132812 " fill-opacity="1" fill-rule="nonzero"/><path fill="#000000" d="M 254.722656 92.648438 C 253.335938 89.558594 251.820312 86.527344 250.179688 83.5625 C 248.539062 80.597656 246.777344 77.703125 244.894531 74.886719 C 243.015625 72.066406 241.019531 69.328125 238.914062 66.675781 C 236.804688 64.023438 234.589844 61.460938 232.269531 58.992188 C 229.949219 56.523438 227.527344 54.15625 225.011719 51.886719 C 222.492188 49.621094 219.886719 47.460938 217.191406 45.410156 C 214.492188 43.363281 211.714844 41.425781 208.859375 39.609375 C 206 37.789062 203.074219 36.089844 200.074219 34.515625 C 197.074219 32.941406 194.015625 31.492188 190.898438 30.171875 C 187.78125 28.851562 184.613281 27.660156 181.394531 26.605469 C 178.175781 25.546875 174.921875 24.625 171.628906 23.839844 C 168.332031 23.054688 165.011719 22.40625 161.664062 21.898438 C 158.316406 21.386719 154.953125 21.019531 151.574219 20.789062 C 148.195312 20.558594 144.8125 20.472656 141.429688 20.523438 C 138.042969 20.574219 134.664062 20.769531 131.296875 21.101562 C 127.925781 21.433594 124.574219 21.90625 121.246094 22.519531 L 119.140625 11.085938 C 120.964844 10.75 122.792969 10.453125 124.628906 10.191406 C 126.464844 9.933594 128.304688 9.714844 130.148438 9.53125 C 131.992188 9.347656 133.839844 9.203125 135.691406 9.097656 C 137.542969 8.992188 139.394531 8.925781 141.246094 8.898438 C 143.101562 8.867188 144.953125 8.878906 146.804688 8.925781 C 148.660156 8.976562 150.511719 9.0625 152.359375 9.1875 C 154.207031 9.3125 156.054688 9.476562 157.898438 9.679688 C 159.738281 9.882812 161.578125 10.121094 163.410156 10.402344 C 165.242188 10.679688 167.066406 10.996094 168.886719 11.351562 C 170.707031 11.707031 172.515625 12.097656 174.320312 12.53125 C 176.121094 12.960938 177.914062 13.425781 179.699219 13.933594 C 181.484375 14.4375 183.253906 14.980469 185.015625 15.558594 C 186.777344 16.136719 188.523438 16.75 190.261719 17.402344 C 191.996094 18.054688 193.71875 18.742188 195.425781 19.464844 C 197.132812 20.1875 198.824219 20.945312 200.5 21.738281 C 202.171875 22.53125 203.832031 23.359375 205.472656 24.222656 C 207.113281 25.085938 208.738281 25.980469 210.339844 26.910156 C 211.945312 27.839844 213.527344 28.804688 215.09375 29.796875 C 216.65625 30.792969 218.199219 31.824219 219.71875 32.882812 C 221.242188 33.941406 222.742188 35.035156 224.214844 36.15625 C 225.691406 37.277344 227.144531 38.429688 228.574219 39.613281 C 230 40.796875 231.402344 42.007812 232.78125 43.25 C 234.160156 44.492188 235.511719 45.761719 236.835938 47.058594 C 238.160156 48.355469 239.457031 49.679688 240.730469 51.03125 C 242 52.382812 243.242188 53.761719 244.453125 55.164062 C 245.667969 56.566406 246.851562 57.992188 248.003906 59.445312 C 249.15625 60.898438 250.28125 62.375 251.371094 63.875 C 252.464844 65.371094 253.527344 66.894531 254.554688 68.4375 C 255.585938 69.980469 256.582031 71.542969 257.546875 73.128906 C 258.511719 74.714844 259.441406 76.316406 260.339844 77.941406 C 261.238281 79.566406 262.101562 81.207031 262.929688 82.867188 C 263.757812 84.527344 264.554688 86.203125 265.3125 87.894531 Z M 254.722656 92.648438 " fill-opacity="1" fill-rule="nonzero"/><path fill="#000000" d="M 99.082031 28.832031 L 94.855469 17.996094 C 98.824219 16.445312 102.914062 15.089844 107 13.925781 L 110.160156 25.113281 C 106.433594 26.160156 102.703125 27.414062 99.082031 28.832031 Z M 99.082031 28.832031 " fill-opacity="1" fill-rule="nonzero"/><path fill="#000000" d="M 58.25 179.800781 C 56.863281 176.609375 55.65625 173.351562 54.636719 170.027344 C 53.613281 166.699219 52.777344 163.328125 52.132812 159.910156 C 51.488281 156.488281 51.035156 153.042969 50.777344 149.574219 C 50.515625 146.101562 50.449219 142.628906 50.582031 139.152344 C 50.710938 135.675781 51.03125 132.214844 51.546875 128.773438 C 52.0625 125.332031 52.769531 121.929688 53.667969 118.566406 C 54.5625 115.207031 55.644531 111.90625 56.910156 108.664062 C 58.179688 105.421875 59.621094 102.261719 61.242188 99.183594 L 71.5 104.613281 C 70.085938 107.308594 68.824219 110.074219 67.71875 112.910156 C 66.609375 115.746094 65.667969 118.632812 64.882812 121.574219 C 64.097656 124.519531 63.480469 127.492188 63.03125 130.503906 C 62.578125 133.515625 62.296875 136.542969 62.183594 139.585938 C 62.074219 142.628906 62.128906 145.667969 62.355469 148.703125 C 62.582031 151.738281 62.980469 154.753906 63.542969 157.746094 C 64.105469 160.734375 64.835938 163.6875 65.730469 166.597656 C 66.621094 169.507812 67.675781 172.359375 68.886719 175.152344 Z M 58.25 179.800781 " fill-opacity="1" fill-rule="nonzero"/><path fill="#000000" d="M 74.171875 204.609375 C 70.710938 200.734375 67.59375 196.597656 64.824219 192.203125 L 74.640625 186.003906 C 77.070312 189.847656 79.796875 193.464844 82.824219 196.851562 Z M 74.171875 204.609375 " fill-opacity="1" fill-rule="nonzero"/><path fill="#000000" d="M 168.191406 232.269531 L 165.101562 221.078125 C 169.398438 219.875 173.574219 218.332031 177.621094 216.445312 C 181.667969 214.558594 185.535156 212.355469 189.21875 209.835938 C 192.90625 207.3125 196.363281 204.507812 199.589844 201.421875 C 202.816406 198.332031 205.769531 195.003906 208.453125 191.429688 L 217.742188 198.40625 C 214.675781 202.488281 211.296875 206.292969 207.609375 209.820312 C 203.917969 213.347656 199.96875 216.550781 195.753906 219.429688 C 191.542969 222.308594 187.121094 224.824219 182.496094 226.980469 C 177.871094 229.132812 173.101562 230.898438 168.191406 232.269531 Z M 168.191406 232.269531 " fill-opacity="1" fill-rule="nonzero"/><path fill="#000000" d="M 225.597656 186.011719 L 215.339844 180.570312 C 217.1875 177.070312 218.765625 173.457031 220.082031 169.726562 L 231.039062 173.597656 C 229.53125 177.871094 227.714844 182.007812 225.597656 186.011719 Z M 225.597656 186.011719 " fill-opacity="1" fill-rule="nonzero"/><path fill="#000000" d="M 215.339844 104.613281 C 214.480469 102.984375 213.570312 101.386719 212.605469 99.816406 C 211.640625 98.25 210.621094 96.71875 209.550781 95.21875 C 208.480469 93.71875 207.363281 92.261719 206.195312 90.839844 C 205.023438 89.414062 203.808594 88.035156 202.546875 86.695312 C 201.285156 85.355469 199.976562 84.0625 198.628906 82.8125 C 197.277344 81.558594 195.886719 80.355469 194.453125 79.203125 C 193.023438 78.046875 191.550781 76.941406 190.042969 75.882812 C 188.539062 74.828125 186.996094 73.824219 185.421875 72.875 C 183.84375 71.921875 182.238281 71.027344 180.605469 70.183594 C 178.96875 69.34375 177.304688 68.558594 175.613281 67.832031 C 173.925781 67.101562 172.214844 66.433594 170.476562 65.820312 C 168.742188 65.207031 166.988281 64.65625 165.21875 64.164062 C 163.445312 63.671875 161.65625 63.238281 159.855469 62.867188 C 158.054688 62.496094 156.242188 62.1875 154.417969 61.941406 C 152.597656 61.695312 150.765625 61.507812 148.929688 61.386719 C 147.097656 61.261719 145.257812 61.203125 143.417969 61.203125 L 143.417969 49.578125 C 145.519531 49.574219 147.621094 49.644531 149.71875 49.785156 C 151.816406 49.925781 153.90625 50.136719 155.988281 50.417969 C 158.070312 50.703125 160.140625 51.054688 162.203125 51.476562 C 164.261719 51.902344 166.300781 52.394531 168.328125 52.957031 C 170.351562 53.519531 172.355469 54.152344 174.339844 54.851562 C 176.324219 55.550781 178.277344 56.316406 180.210938 57.148438 C 182.140625 57.980469 184.039062 58.878906 185.910156 59.839844 C 187.78125 60.800781 189.613281 61.824219 191.414062 62.914062 C 193.214844 64 194.976562 65.144531 196.699219 66.351562 C 198.421875 67.558594 200.101562 68.820312 201.734375 70.144531 C 203.371094 71.464844 204.960938 72.839844 206.503906 74.269531 C 208.046875 75.695312 209.542969 77.175781 210.984375 78.707031 C 212.425781 80.238281 213.816406 81.816406 215.152344 83.441406 C 216.484375 85.066406 217.765625 86.734375 218.988281 88.449219 C 220.210938 90.160156 221.371094 91.910156 222.476562 93.703125 C 223.578125 95.496094 224.617188 97.320312 225.597656 99.183594 Z M 215.339844 104.613281 " fill-opacity="1" fill-rule="nonzero"/><path fill="#000000" d="M 121.742188 64.109375 L 118.644531 52.902344 C 122.71875 51.777344 126.851562 50.9375 131.039062 50.378906 L 132.574219 61.902344 C 128.914062 62.390625 125.304688 63.125 121.742188 64.109375 Z M 121.742188 64.109375 " fill-opacity="1" fill-rule="nonzero"/></svg>